<?xml version="1.0" ?><svg id="Layer_1" style="enable-background:new 0 0 24 24;" version="1.1" viewBox="0 0 24 24" xml:space="preserve" xmlns="http://www.w3.org/2000/svg" xmlns:xlink="http://www.w3.org/1999/xlink"><style type="text/css">
	.st0{fill:none;stroke:#000000;stroke-width:1.6724;stroke-linecap:round;stroke-linejoin:round;stroke-miterlimit:10;}
	.st1{fill:none;stroke:#000000;stroke-width:1.5;stroke-linecap:round;stroke-linejoin:round;stroke-miterlimit:10;}
	.st2{fill:none;stroke:#000000;stroke-width:1.5;stroke-linejoin:round;stroke-miterlimit:10;}
</style><g><g><g><g><path d="M12,1.5c5.8,0,10.5,4.7,10.5,10.5S17.8,22.5,12,22.5C6.2,22.5,1.5,17.8,1.5,12S6.2,1.5,12,1.5 M12,0L12,0      C5.4,0,0,5.4,0,12s5.4,12,12,12h0c6.6,0,12-5.4,12-12S18.6,0,12,0L12,0z"/></g></g></g><g><g><line class="st1" x1="18.1" x2="9.4" y1="8.4" y2="8.4"/><line class="st1" x1="18.1" x2="9.4" y1="12" y2="12"/><line class="st1" x1="18.1" x2="9.4" y1="15.6" y2="15.6"/></g><circle cx="6.7" cy="8.4" r="0.8"/><circle cx="6.7" cy="12" r="0.8"/><circle cx="6.7" cy="15.6" r="0.8"/></g></g></svg>